<svg width="53" height="69" viewBox="0 0 53 69" fill="none" xmlns="http://www.w3.org/2000/svg">
<path d="M19.2218 43.7345C19.4687 43.9302 19.7221 44.1128 19.9809 44.2861C21.2101 45.103 22.5575 45.6664 23.9496 45.975C24.2372 46.0393 24.5274 46.0932 24.8176 46.1339C25.9418 46.2967 27.0843 46.298 28.2072 46.1365C28.3635 46.1142 28.5211 46.0879 28.6774 46.0577C30.2113 45.774 31.6979 45.1818 33.04 44.2835C33.1635 44.2007 33.2856 44.1154 33.4051 44.0274C33.8976 43.6702 34.3691 43.2696 34.813 42.8257C35.4053 42.2335 35.9214 41.5939 36.36 40.9176C37.3121 39.452 37.9031 37.8195 38.1329 36.1451C38.1395 36.1031 38.1447 36.0611 38.1487 36.0204C38.2813 34.9881 38.2761 33.9415 38.1329 32.9092V32.8186L39.8835 31.068L41.9769 28.9747C42.4365 30.2722 42.732 31.6143 42.8607 32.9683V36.1346C42.7386 37.4177 42.4667 38.6876 42.0452 39.9168C41.5172 41.4639 40.7516 42.9453 39.7496 44.3071C39.2663 44.9651 38.7278 45.5954 38.1329 46.1917C38.129 46.1956 38.1237 46.2009 38.1198 46.2048C37.584 46.7406 37.0206 47.2318 36.4335 47.677C35.4788 48.4032 34.4623 49.0113 33.4051 49.4998C32.9783 49.6981 32.5449 49.8767 32.105 50.0343C30.9913 50.4388 29.8409 50.7172 28.6774 50.8722C27.9958 50.9641 27.3089 51.014 26.6208 51.0179C26.5485 51.0206 26.4763 51.0206 26.4041 51.0193C25.5833 51.0179 24.7625 50.9536 23.9496 50.8288C22.9134 50.6726 21.8877 50.4165 20.8896 50.0619C20.3249 49.8623 19.7681 49.6311 19.2218 49.3659C18.2867 48.9167 17.3845 48.3743 16.5283 47.7387C16.3943 47.6402 16.2617 47.5378 16.1303 47.4327C15.6155 47.0282 15.1191 46.5883 14.6437 46.1129C14.5925 46.0617 14.5426 46.0104 14.494 45.9592C14.0724 45.5285 13.6811 45.082 13.3173 44.6197C13.2635 44.554 13.2122 44.487 13.161 44.4187C12.1393 43.0831 11.3461 41.6294 10.7827 40.1112C10.2022 38.5524 9.86339 36.9265 9.76621 35.2902V34.4418L9.79642 34.4116L9.76621 34.3814V33.2782C9.86077 31.7049 10.1786 30.1461 10.721 28.6503C11.2121 27.2923 11.8871 25.987 12.7487 24.7735C12.855 24.6212 12.964 24.4714 13.0796 24.323C13.5077 23.757 13.9805 23.212 14.494 22.6946C14.5124 22.6749 14.5321 22.6552 14.5505 22.6368C15.1506 22.0366 15.7849 21.4929 16.4481 21.0057L16.4823 21.0399L16.6872 20.835C17.4948 20.2611 18.3445 19.7699 19.2218 19.3615C19.751 19.1146 20.2908 18.8979 20.8397 18.7114C21.8536 18.3634 22.895 18.1178 23.9496 17.9747V22.9572C22.5746 23.2488 21.2416 23.7912 20.0242 24.5818C19.7497 24.7604 19.4818 24.9508 19.2218 25.153C18.8383 25.4511 18.468 25.7768 18.116 26.1288C17.5631 26.6817 17.0772 27.2753 16.6583 27.9017C15.6681 29.3805 15.0508 31.0352 14.8052 32.7346C14.645 33.8469 14.645 34.9776 14.8026 36.0913C15.0443 37.792 15.6576 39.4506 16.6412 40.9386C16.9748 41.4416 17.3504 41.9248 17.768 42.3832C17.8927 42.5198 18.0214 42.655 18.1541 42.7877C18.2867 42.9203 18.422 43.049 18.5586 43.1738" fill="#009DB2"/>
<path d="M23.9496 61.9378V68.6237L9.79641 54.4705L9.86207 54.4049C9.83055 54.3773 9.79772 54.351 9.7662 54.3235C9.40637 54.0214 9.05309 53.7062 8.70639 53.3805L7.54283 52.217C7.18825 51.8401 6.8468 51.454 6.51848 51.0613C5.99054 50.4283 5.49675 49.7769 5.03842 49.1071C4.58928 48.4544 4.17428 47.7847 3.79343 47.1005C2.95688 45.6059 2.28054 44.0445 1.76311 42.4449C1.38358 41.2708 1.0894 40.0758 0.880594 38.8675C0.767653 38.2162 0.680977 37.5608 0.617939 36.9042C0.460347 35.2482 0.460347 33.579 0.619253 31.9216C0.68229 31.2624 0.771592 30.6057 0.884534 29.9517C1.09334 28.7475 1.38752 27.5537 1.76705 26.3823C2.2858 24.7827 2.96345 23.2238 3.8 21.7293C4.17954 21.0504 4.59322 20.3845 5.03842 19.7358C5.49938 19.0634 5.99579 18.4067 6.52767 17.7711C7.0254 17.1749 7.55465 16.5957 8.11542 16.035C8.64861 15.5018 9.20018 14.9962 9.7662 14.5195V21.2762C8.78387 22.5173 7.96176 23.8437 7.29856 25.2279C6.52636 26.8353 5.96821 28.5203 5.62545 30.2406C5.49544 30.8868 5.39694 31.5395 5.32865 32.1935C5.17237 33.6683 5.17237 35.1549 5.32734 36.6297C5.39431 37.285 5.49281 37.9377 5.62282 38.5852C5.96428 40.3069 6.5211 41.9931 7.292 43.6019C7.95782 44.99 8.78125 46.3204 9.7662 47.5654C9.80166 47.6113 9.83843 47.6573 9.87652 47.7032C10.1983 48.1064 10.5384 48.4991 10.8956 48.8826C11.069 49.069 11.2476 49.2542 11.4301 49.4368C11.6127 49.6193 11.7978 49.7979 11.9843 49.9713L13.14 51.1269L14.494 52.4822L16.4823 54.4692L19.2218 57.21L19.8259 57.8128L22.0545 60.0428L23.9496 61.9378Z" fill="black"/>
<path d="M52.3885 36.8884C52.3675 37.1117 52.3439 37.3336 52.3163 37.5556C52.2624 38.0021 52.1968 38.4473 52.1193 38.8912C51.9131 40.0863 51.6216 41.2695 51.2473 42.4318C50.7298 44.0326 50.0535 45.5941 49.2183 47.09C48.7284 47.9646 48.186 48.8169 47.5885 49.643C47.2418 50.121 46.8767 50.5911 46.4932 51.0508C45.9902 51.6549 45.4557 52.2406 44.8884 52.8079C44.3211 53.3753 43.7485 53.898 43.1523 54.3957C43.0551 54.4771 42.9592 54.5559 42.8607 54.6347V47.895C42.9329 47.807 43.0039 47.7203 43.0735 47.631C44.1031 46.3401 44.958 44.9572 45.6422 43.5139C46.4079 41.8973 46.9581 40.2045 47.293 38.4775C47.402 37.9128 47.4887 37.3441 47.5504 36.7742L47.5885 36.7361V36.4117C47.7133 35.0879 47.7133 33.7537 47.5885 32.4299V32.0884L47.5491 32.049C47.4861 31.4791 47.3994 30.9117 47.2904 30.3483C46.9542 28.6227 46.4026 26.9312 45.6357 25.3159C44.9514 23.8726 44.0952 22.4897 43.0669 21.2001C42.9986 21.1147 42.9303 21.0307 42.8607 20.9466C42.4799 20.4817 42.0741 20.0299 41.6472 19.5913C41.5855 19.5296 41.5238 19.4666 41.4621 19.4048C41.4279 19.3707 41.3925 19.3365 41.3583 19.3024C41.3229 19.2669 41.2874 19.2328 41.2533 19.1986L39.8179 17.7619L28.6774 6.62143V-0.0500031L43.9402 15.096C45.4295 16.6561 46.3882 17.6661 46.4853 17.7816C46.5576 17.8683 46.6285 17.955 46.6994 18.0417C47.008 18.4212 47.3048 18.8073 47.5885 19.2C48.1834 20.0221 48.7245 20.8704 49.2104 21.7411C50.0469 23.2356 50.7233 24.7958 51.242 26.3967C51.6163 27.5563 51.9078 28.7356 52.1153 29.9281C52.1245 29.9806 52.1337 30.0345 52.1429 30.087C52.2112 30.4862 52.269 30.8855 52.3163 31.286C52.3425 31.5027 52.3662 31.7207 52.3872 31.9374C52.5435 33.5842 52.5448 35.2429 52.3872 36.8884H52.3885Z" fill="#EDC016"/>
</svg>
